<?xml version="1.0" encoding="UTF-8"?>
<svg width="22px" height="22px" viewBox="0 0 22 22" version="1.1" xmlns="http://www.w3.org/2000/svg" xmlns:xlink="http://www.w3.org/1999/xlink">
    <!-- Generator: Sketch 52.6 (67491) - http://www.bohemiancoding.com/sketch -->
    <title>Oval Copy 4</title>
    <desc>Created with Sketch.</desc>
    <g id="New_Web-страница-мастера" stroke="none" stroke-width="1" fill="none" fill-rule="evenodd">
        <g id="Страница-визиткатолько-онлайн-запись" transform="translate(-328.000000, -490.000000)" fill="#C7C7CC" fill-rule="nonzero">
            <g id="Group-9-Copy" transform="translate(10.000000, 368.000000)">
                <g id="Group-8">
                    <g id="Group-7">
                        <g id="Group-4" transform="translate(0.000000, 104.000000)">
                            <g id="Oval-Copy-4" transform="translate(318.000000, 18.000000)">
                                <path d="M11,22 C4.92486775,22 0,17.0751322 0,11 C0,4.92486775 4.92486775,0 11,0 C17.0751322,0 22,4.92486775 22,11 C22,17.0751322 17.0751322,22 11,22 Z M11,20 C15.9705627,20 20,15.9705627 20,11 C20,6.02943725 15.9705627,2 11,2 C6.02943725,2 2,6.02943725 2,11 C2,15.9705627 6.02943725,20 11,20 Z" id="Oval-Copy-3"></path>
                            </g>
                        </g>
                    </g>
                </g>
            </g>
        </g>
    </g>
</svg>