<?xml version="1.0" encoding="UTF-8"?>
<svg width="20" height="20" viewBox="0 0 22 22" version="1.1" xmlns="http://www.w3.org/2000/svg" xmlns:xlink="http://www.w3.org/1999/xlink">
    <title>Group 20</title>
    <g id="NY-21-22" stroke="none" stroke-width="1" fill="none" fill-rule="evenodd">
        <g id="Checkmark" transform="translate(-28.000000, -13.000000)" fill="#000" fill-rule="nonzero">
            <g id="Group-20" transform="translate(28.000000, 13.000000)">
                <path d="M11,0 C17.0751322,0 22,4.92486775 22,11 C22,17.0751322 17.0751322,22 11,22 C4.92486775,22 0,17.0751322 0,11 C0,4.92486775 4.92486775,0 11,0 Z M17.72025,6.29325 C17.32925,5.90225 16.69725,5.90225 16.30625,6.29325 L16.30625,6.29325 L9.45325,13.14625 L6.70725,10.40025 C6.31625,10.00925 5.68425,10.00925 5.29325,10.40025 C4.90225,10.79125 4.90225,11.42325 5.29325,11.81425 L5.29325,11.81425 L8.74625,15.26725 C8.93325,15.45525 9.18825,15.56025 9.45325,15.56025 C9.71825,15.56025 9.97225,15.45525 10.16025,15.26725 L10.16025,15.26725 L17.72025,7.70725 C18.11125,7.31625 18.11125,6.68425 17.72025,6.29325 Z" id="Combined-Shape"></path>
            </g>
        </g>
    </g>
</svg>